<svg id="visual" viewBox="0 0 1900 1000" width="1900" height="1000" xmlns="http://www.w3.org/2000/svg" xmlns:xlink="http://www.w3.org/1999/xlink" version="1.1"><rect x="0" y="0" width="1900" height="1000" fill="#ffffff"></rect><defs><linearGradient id="grad1_0" x1="47.4%" y1="0%" x2="100%" y2="100%"><stop offset="12.000000000000004%" stop-color="#eaeaea" stop-opacity="1"></stop><stop offset="87.99999999999999%" stop-color="#eaeaea" stop-opacity="1"></stop></linearGradient></defs><defs><linearGradient id="grad1_1" x1="47.4%" y1="0%" x2="100%" y2="100%"><stop offset="12.000000000000004%" stop-color="#eaeaea" stop-opacity="1"></stop><stop offset="87.99999999999999%" stop-color="#f4f4f4" stop-opacity="1"></stop></linearGradient></defs><defs><linearGradient id="grad1_2" x1="47.4%" y1="0%" x2="100%" y2="100%"><stop offset="12.000000000000004%" stop-color="#ffffff" stop-opacity="1"></stop><stop offset="87.99999999999999%" stop-color="#f4f4f4" stop-opacity="1"></stop></linearGradient></defs><defs><linearGradient id="grad2_0" x1="0%" y1="0%" x2="52.6%" y2="100%"><stop offset="12.000000000000004%" stop-color="#eaeaea" stop-opacity="1"></stop><stop offset="87.99999999999999%" stop-color="#eaeaea" stop-opacity="1"></stop></linearGradient></defs><defs><linearGradient id="grad2_1" x1="0%" y1="0%" x2="52.6%" y2="100%"><stop offset="12.000000000000004%" stop-color="#f4f4f4" stop-opacity="1"></stop><stop offset="87.99999999999999%" stop-color="#eaeaea" stop-opacity="1"></stop></linearGradient></defs><defs><linearGradient id="grad2_2" x1="0%" y1="0%" x2="52.6%" y2="100%"><stop offset="12.000000000000004%" stop-color="#f4f4f4" stop-opacity="1"></stop><stop offset="87.99999999999999%" stop-color="#ffffff" stop-opacity="1"></stop></linearGradient></defs><g transform="translate(1900, 0)"><path d="M0 950C-95.2 916.3 -190.4 882.7 -270.1 831.2C-349.8 779.8 -413.9 710.5 -471.4 648.8C-528.9 587.2 -579.8 533.1 -660.2 479.6C-740.5 426.2 -850.3 373.4 -903.5 293.6C-956.7 213.7 -953.4 106.9 -950 0L0 0Z" fill="#fafafa"></path><path d="M0 633.3C-63.5 610.9 -126.9 588.5 -180.1 554.1C-233.2 519.8 -275.9 473.7 -314.3 432.6C-352.6 391.4 -386.5 355.4 -440.1 319.8C-493.7 284.1 -566.9 248.9 -602.3 195.7C-637.8 142.5 -635.6 71.2 -633.3 0L0 0Z" fill="#efefef"></path><path d="M0 316.7C-31.7 305.4 -63.5 294.2 -90 277.1C-116.6 259.9 -138 236.8 -157.1 216.3C-176.3 195.7 -193.3 177.7 -220.1 159.9C-246.8 142.1 -283.4 124.5 -301.2 97.9C-318.9 71.2 -317.8 35.6 -316.7 0L0 0Z" fill="#eaeaea"></path></g><g transform="translate(0, 1000)"><path d="M0 -950C113 -960.4 226.1 -970.8 293.6 -903.5C361.1 -836.2 383 -691.1 447.3 -615.7C511.6 -540.2 618.2 -534.4 660.2 -479.6C702.2 -424.9 679.6 -321.1 717.1 -233C754.6 -144.9 852.3 -72.4 950 0L0 0Z" fill="#fafafa"></path><path d="M0 -633.3C75.4 -640.3 150.7 -647.2 195.7 -602.3C240.7 -557.5 255.4 -460.7 298.2 -410.4C341.1 -360.1 412.1 -356.3 440.1 -319.8C468.1 -283.2 453 -214.1 478.1 -155.3C503.1 -96.6 568.2 -48.3 633.3 0L0 0Z" fill="#efefef"></path><path d="M0 -316.7C37.7 -320.1 75.4 -323.6 97.9 -301.2C120.4 -278.7 127.7 -230.4 149.1 -205.2C170.5 -180.1 206.1 -178.1 220.1 -159.9C234.1 -141.6 226.5 -107 239 -77.7C251.5 -48.3 284.1 -24.1 316.7 0L0 0Z" fill="#eaeaea"></path></g></svg>